<svg id="icon" xmlns="http://www.w3.org/2000/svg" viewBox="0 0 77.85 70.21">
  <g id="_4" data-name="4">
    <path d="M52.21,43.66a1.2,1.2,0,1,0,0-2.4H15.35a12.95,12.95,0,1,1,0-25.89H19.8a1.18,1.18,0,0,0,1-.6,1.11,1.11,0,0,0,.23-.36,18.82,18.82,0,0,1,1.44-2.83,1.2,1.2,0,0,0-2.05-1.26A22.21,22.21,0,0,0,19.07,13H15.35a15.35,15.35,0,1,0,0,30.69Z" fill="#025183"/>
    <path d="M55.64,41.26a1.2,1.2,0,0,0,0,2.4H56a1.2,1.2,0,1,0,0-2.4Z" fill="#025183"/>
    <path d="M62.5,13h-4C54.68,5.18,46.92,0,38.92,0A21.68,21.68,0,0,0,22.57,7.44a1.21,1.21,0,0,0,.12,1.7A1.2,1.2,0,0,0,24.38,9,19.32,19.32,0,0,1,38.92,2.4c7.31,0,14.41,4.93,17.68,12.26a1.21,1.21,0,0,0,1.1.71h4.8a12.95,12.95,0,0,1,0,25.89H59.62a1.2,1.2,0,0,0,0,2.4H62.5A15.35,15.35,0,1,0,62.5,13Z" fill="#025183"/>
    <path d="M59,18.41H55.11A20.92,20.92,0,0,0,44.65,8.21a.9.9,0,0,0-.71,1.65,19.2,19.2,0,0,1,9.78,9.82.9.9,0,0,0,.82.54l.12,0,.12,0H59A11.86,11.86,0,0,1,69.56,26.9a.91.91,0,0,0,.81.51.93.93,0,0,0,.4-.09.91.91,0,0,0,.41-1.21A13.68,13.68,0,0,0,59,18.41Z" fill="#025183"/>
    <path d="M70.28,28.77a11.36,11.36,0,0,1,.44,2.78.9.9,0,0,0,.9.86h0a.89.89,0,0,0,.86-.93A13.36,13.36,0,0,0,72,28.27a.9.9,0,0,0-1.73.5Z" fill="#025183"/>
    <path d="M15,64.59a1.2,1.2,0,0,0-1.67.4l-2.07,3.37a1.22,1.22,0,0,0,.4,1.67,1.21,1.21,0,0,0,1.67-.4l2.07-3.37A1.21,1.21,0,0,0,15,64.59Z" fill="#025183"/>
    <path d="M26.17,46.27a1.22,1.22,0,0,0-1.67.4l-9.17,15a1.22,1.22,0,0,0,.4,1.67,1.24,1.24,0,0,0,.64.18,1.19,1.19,0,0,0,1-.58l9.17-15A1.22,1.22,0,0,0,26.17,46.27Z" fill="#025183"/>
    <path d="M37.35,55.84a1.21,1.21,0,0,0-1.67.4L28.25,68.36a1.22,1.22,0,0,0,.4,1.67,1.21,1.21,0,0,0,1.67-.4l7.43-12.12A1.22,1.22,0,0,0,37.35,55.84Z" fill="#025183"/>
    <path d="M39.47,52.37a1.22,1.22,0,0,0-1.67.4l-.27.44a1.22,1.22,0,0,0,.4,1.67,1.24,1.24,0,0,0,.64.18,1.2,1.2,0,0,0,1-.58l.28-.44A1.21,1.21,0,0,0,39.47,52.37Z" fill="#025183"/>
    <path d="M43.21,46.27a1.22,1.22,0,0,0-1.67.4l-1.9,3.1a1.22,1.22,0,0,0,.4,1.67,1.24,1.24,0,0,0,.64.18,1.22,1.22,0,0,0,1-.58l1.9-3.1A1.22,1.22,0,0,0,43.21,46.27Z" fill="#025183"/>
    <path d="M50.05,62.91a1.22,1.22,0,0,0-1.67.4l-3.09,5a1.21,1.21,0,1,0,2.07,1.27l3.09-5A1.22,1.22,0,0,0,50.05,62.91Z" fill="#025183"/>
    <path d="M60.25,46.27a1.22,1.22,0,0,0-1.67.4l-8.6,14a1.21,1.21,0,0,0,.4,1.67,1.18,1.18,0,0,0,.63.18,1.23,1.23,0,0,0,1-.58l8.6-14A1.22,1.22,0,0,0,60.25,46.27Z" fill="#025183"/>
  </g>
</svg>
